<?xml version="1.0" encoding="UTF-8"?>
<!DOCTYPE svg PUBLIC "-//W3C//DTD SVG 1.1//EN" "http://www.w3.org/Graphics/SVG/1.1/DTD/svg11.dtd">
<svg xmlns="http://www.w3.org/2000/svg" xmlns:xlink="http://www.w3.org/1999/xlink" version="1.1" width="441px" height="441px" viewBox="-0.5 -0.5 441 441"><defs/><g><ellipse cx="220" cy="220" rx="220" ry="220" fill="#fafafa" stroke="none" pointer-events="none"/><path d="M 335.12 355.34 L 279.61 300.9 L 257 323.93 L 239.74 240.85 L 323.37 256.27 L 300.97 279.1 L 356.48 333.56 Z M 210.54 249.7 L 156.1 305.21 L 179.13 327.79 L 96.08 345.08 L 111.47 261.45 L 134.32 283.83 L 188.76 228.32 Z M 105.75 84.24 L 161.26 138.68 L 183.85 115.65 L 201.14 198.72 L 117.5 183.31 L 139.88 160.48 L 84.37 106.04 Z M 228.03 189.25 L 282.47 133.74 L 259.44 111.13 L 342.52 93.87 L 327.1 177.5 L 304.27 155.1 L 249.83 210.63 Z M 219.99 0 C 98.53 0 0 98.53 0 219.99 C 0 341.47 98.53 440 219.99 440 C 341.47 440 440 341.47 440 219.99 C 440 98.53 341.47 0 219.99 0 Z M 219.99 5.58 C 338.45 5.58 434.42 101.55 434.42 219.99 C 434.42 338.45 338.45 434.42 219.99 434.42 C 101.55 434.42 5.58 338.45 5.58 219.99 C 5.58 101.55 101.55 5.58 219.99 5.58 Z" fill="#4473a2" stroke="none" pointer-events="none"/><ellipse cx="220" cy="220" rx="180" ry="180" fill="rgb(255, 255, 255)" stroke="#4473a2" stroke-dasharray="3 3" pointer-events="none"/><path d="M 220 264.89 C 195.25 264.89 175.11 244.75 175.11 220 C 175.11 195.25 195.25 175.11 220 175.11 C 244.75 175.11 264.89 195.25 264.89 220 C 264.89 244.75 244.75 264.89 220 264.89 Z M 220 163.62 C 188.91 163.62 163.61 188.91 163.61 220 C 163.61 251.09 188.91 276.38 220 276.38 C 251.09 276.38 276.39 251.09 276.39 220 C 276.39 188.91 251.09 163.62 220 163.62 Z M 335 241.52 L 314.72 241.52 C 312.11 241.52 309.84 243.27 309.16 245.78 C 307.04 253.79 303.64 259.59 299.7 266.31 C 298.38 268.57 298.75 271.44 300.61 273.29 L 314.94 287.52 L 287.35 314.94 L 272.98 300.65 C 271.14 298.82 268.29 298.45 266.05 299.76 L 264.79 300.49 C 258.03 304.4 253.16 307.23 245.8 309.16 C 243.28 309.83 241.52 312.11 241.52 314.72 L 241.52 335 L 198.48 335 L 198.48 314.73 C 198.48 312.13 196.73 309.85 194.21 309.18 C 186.31 307.07 180.61 303.93 173.43 299.73 C 171.17 298.41 168.3 298.78 166.45 300.64 L 152.24 314.94 L 124.86 287.38 L 139.13 273.02 C 140.95 271.18 141.32 268.34 140.03 266.09 L 139.4 265.02 C 135.45 258.18 132.58 253.23 130.63 245.8 C 129.97 243.28 127.68 241.52 125.07 241.52 L 105 241.52 L 105 198.48 L 125.27 198.48 C 127.87 198.48 130.15 196.73 130.82 194.21 C 132.96 186.14 136.22 180.21 140.27 173.28 C 141.59 171.02 141.22 168.15 139.37 166.31 L 125.04 152.04 L 152.61 124.58 L 166.95 138.88 C 168.8 140.72 171.64 141.08 173.89 139.78 L 174.91 139.2 C 181.79 135.21 186.76 132.32 194.2 130.37 C 196.72 129.7 198.48 127.41 198.48 124.8 L 198.48 105 L 241.52 105 L 241.52 125.18 C 241.52 127.78 243.26 130.06 245.78 130.73 C 253.08 132.68 257.96 135.57 264.71 139.55 L 265.7 140.14 C 267.98 141.49 270.86 141.11 272.71 139.23 L 286.72 125.03 L 313.76 152.44 L 299.64 166.76 C 297.83 168.59 297.47 171.42 298.75 173.65 C 302.78 180.67 305.97 186.22 308.05 194.19 C 308.72 196.72 311 198.48 313.61 198.48 L 335 198.48 Z M 335.72 186.98 L 317.91 186.98 C 316 181.24 313.6 176.55 310.89 171.72 L 322.44 160.01 C 326.56 155.84 326.56 149.05 322.44 144.87 L 294.39 116.43 C 290.3 112.29 283.13 112.29 279.04 116.43 L 267.67 127.96 C 262.99 125.24 258.52 122.83 253.01 120.93 L 253.01 104.28 C 253.01 98.34 248.18 93.5 242.23 93.5 L 197.77 93.5 C 191.82 93.5 186.99 98.34 186.99 104.28 L 186.99 120.53 C 181.34 122.44 176.75 124.88 171.95 127.63 L 160.22 115.93 C 156.02 111.75 149.2 111.77 145 115.93 L 116.41 144.41 C 114.37 146.45 113.25 149.15 113.25 152.04 C 113.25 154.93 114.37 157.64 116.41 159.68 L 128.13 171.34 C 125.37 176.25 122.91 181.15 120.98 186.98 L 104.28 186.98 C 98.34 186.98 93.5 191.82 93.5 197.76 L 93.5 242.24 C 93.5 248.18 98.34 253.02 104.28 253.02 L 120.79 253.02 C 122.7 258.66 125.13 263.24 127.88 268.04 L 116.2 279.79 C 112.05 283.97 112.05 290.79 116.21 294.97 L 144.59 323.56 C 146.62 325.61 149.34 326.74 152.23 326.74 L 152.24 326.74 C 155.13 326.74 157.85 325.61 159.89 323.56 L 171.49 311.88 C 176.48 314.7 181.27 317.11 186.99 319.01 L 186.99 335.72 C 186.99 341.66 191.82 346.5 197.77 346.5 L 242.23 346.5 C 248.18 346.5 253.01 341.66 253.01 335.72 L 253.01 319 C 258.66 317.09 263.21 314.66 268 311.91 L 279.75 323.59 C 283.93 327.76 290.75 327.76 294.95 323.59 L 323.55 295.16 C 325.6 293.13 326.73 290.4 326.73 287.51 C 326.73 284.62 325.6 281.9 323.55 279.87 L 311.86 268.26 C 314.55 263.56 317.04 258.79 318.99 253.02 L 335.72 253.02 C 341.67 253.02 346.5 248.18 346.5 242.24 L 346.5 197.76 C 346.5 191.82 341.67 186.98 335.72 186.98 Z" fill="#4473a2" stroke="none" pointer-events="none"/></g></svg>